<?xml version="1.0" encoding="utf-8"?>
<!DOCTYPE svg PUBLIC "-//W3C//DTD SVG 1.1//EN" "http://www.w3.org/Graphics/SVG/1.1/DTD/svg11.dtd">
<svg version="1.1" id="Layer_1" xmlns="http://www.w3.org/2000/svg" xmlns:xlink="http://www.w3.org/1999/xlink" x="0px" y="0px"
	 width="21px" height="21px" viewBox="0 0 21 21" enable-background="new 0 0 21 21" xml:space="preserve">
<g>
	<path fill="#535353" d="M15.02 4.85l-4.28-4.63c-.08-.08-.18-.12-.29-.12-.1 0-.2.04-.28.12L5.95 4.85c-.1.13-.13.27-.06.42.06.15.18.23.35.23h3.39v15.05c0 .11.04.2.11.28.07.07.16.11.28.11h.94c.11 0 .2-.04.28-.11.07-.07.11-.16.11-.28V5.5h3.39c.16 0 .28-.08.35-.23C15.14 5.12 15.12 4.98 15.02 4.85z"/>
</g>
</svg>
