<?xml version="1.0" encoding="UTF-8"?>
<svg xmlns="http://www.w3.org/2000/svg" xmlns:xlink="http://www.w3.org/1999/xlink" width="15px" height="15px" viewBox="0 0 15 15" version="1.1">
<g id="surface1">
<path style=" stroke:none;fill-rule:nonzero;fill:rgb(63.921569%,10.980392%,3.529412%);fill-opacity:1;" d="M 14.902344 5.617188 C 14.496094 6.023438 12.929688 5.117188 11.40625 3.59375 C 9.882812 2.070312 8.976562 0.503906 9.382812 0.0976562 C 9.789062 -0.308594 11.355469 0.597656 12.878906 2.121094 C 14.402344 3.644531 15.308594 5.210938 14.902344 5.617188 "/>
<path style=" stroke:none;fill-rule:nonzero;fill:rgb(85.098039%,85.882353%,90.980392%);fill-opacity:1;" d="M 0 15 L 3.3125 10.214844 L 4.785156 11.6875 Z M 0 15 "/>
<path style=" stroke:none;fill-rule:nonzero;fill:rgb(80.784314%,22.352941%,16.078431%);fill-opacity:1;" d="M 11.40625 3.59375 C 9.882812 2.070312 8.976562 0.503906 9.382812 0.0976562 C 7.910156 1.570312 8.226562 3.722656 9.75 5.25 C 11.277344 6.773438 13.335938 7.183594 14.8125 5.707031 L 14.789062 5.683594 C 14.253906 5.878906 12.816406 5 11.40625 3.59375 "/>
<path style=" stroke:none;fill-rule:nonzero;fill:rgb(63.921569%,10.980392%,3.529412%);fill-opacity:1;" d="M 10.082031 8.230469 L 11.808594 6.5 C 11.085938 6.304688 10.375 5.871094 9.75 5.25 C 9.128906 4.625 8.710938 3.898438 8.53125 3.15625 L 6.773438 4.917969 L 5.335938 6.351562 C 5.515625 7.097656 6 7.753906 6.625 8.375 C 7.246094 9 7.921875 9.464844 8.648438 9.664062 Z M 10.082031 8.230469 "/>
<path style=" stroke:none;fill-rule:nonzero;fill:rgb(63.921569%,10.980392%,3.529412%);fill-opacity:1;" d="M 10.082031 8.230469 L 11.808594 6.5 C 11.085938 6.304688 10.375 5.871094 9.75 5.25 C 9.128906 4.625 8.710938 3.898438 8.53125 3.15625 L 6.773438 4.917969 L 5.335938 6.351562 C 5.515625 7.097656 6 7.753906 6.625 8.375 C 7.246094 9 7.921875 9.464844 8.648438 9.664062 Z M 10.082031 8.230469 "/>
<path style=" stroke:none;fill-rule:nonzero;fill:rgb(80.784314%,22.352941%,16.078431%);fill-opacity:1;" d="M 9.175781 11.496094 C 9.246094 10.863281 9.128906 10.191406 8.828125 9.484375 L 8.648438 9.664062 C 7.921875 9.464844 7.246094 9 6.625 8.375 C 6 7.753906 5.515625 7.09375 5.335938 6.351562 L 5.519531 6.167969 L 5.511719 6.160156 C 4.800781 5.855469 4.125 5.738281 3.488281 5.808594 C 2.304688 5.9375 1.601562 7.160156 2.085938 8.246094 C 2.453125 9.074219 3.132812 10.039062 4.039062 10.945312 C 4.945312 11.851562 5.910156 12.53125 6.734375 12.898438 C 7.824219 13.382812 9.046875 12.679688 9.175781 11.496094 "/>
</g>
</svg>
