<?xml version="1.0" encoding="UTF-8"?>
<svg xmlns="http://www.w3.org/2000/svg" xmlns:xlink="http://www.w3.org/1999/xlink" width="19px" height="19px" viewBox="0 0 19 19" version="1.1">
<g id="surface1">
<path style=" stroke:none;fill-rule:nonzero;fill:rgb(63.921569%,10.980392%,3.529412%);fill-opacity:1;" d="M 18.875 7.113281 C 18.363281 7.628906 16.378906 6.480469 14.449219 4.550781 C 12.519531 2.621094 11.371094 0.636719 11.886719 0.125 C 12.398438 -0.390625 14.382812 0.757812 16.3125 2.6875 C 18.242188 4.617188 19.390625 6.601562 18.875 7.113281 "/>
<path style=" stroke:none;fill-rule:nonzero;fill:rgb(85.098039%,85.882353%,90.980392%);fill-opacity:1;" d="M 0 19 L 4.195312 12.9375 L 6.0625 14.804688 Z M 0 19 "/>
<path style=" stroke:none;fill-rule:nonzero;fill:rgb(80.784314%,22.352941%,16.078431%);fill-opacity:1;" d="M 14.449219 4.550781 C 12.519531 2.621094 11.371094 0.636719 11.886719 0.125 C 10.019531 1.988281 10.421875 4.714844 12.351562 6.648438 C 14.285156 8.578125 16.890625 9.097656 18.761719 7.230469 L 18.734375 7.199219 C 18.054688 7.445312 16.234375 6.332031 14.449219 4.550781 "/>
<path style=" stroke:none;fill-rule:nonzero;fill:rgb(63.921569%,10.980392%,3.529412%);fill-opacity:1;" d="M 12.769531 10.425781 L 14.957031 8.234375 C 14.042969 7.984375 13.140625 7.4375 12.351562 6.648438 C 11.5625 5.859375 11.035156 4.9375 10.804688 3.996094 L 8.578125 6.230469 L 6.757812 8.046875 C 6.988281 8.992188 7.601562 9.820312 8.390625 10.609375 C 9.179688 11.398438 10.035156 11.988281 10.953125 12.242188 Z M 12.769531 10.425781 "/>
<path style=" stroke:none;fill-rule:nonzero;fill:rgb(63.921569%,10.980392%,3.529412%);fill-opacity:1;" d="M 12.769531 10.425781 L 14.957031 8.234375 C 14.042969 7.984375 13.140625 7.4375 12.351562 6.648438 C 11.5625 5.859375 11.035156 4.9375 10.804688 3.996094 L 8.578125 6.230469 L 6.757812 8.046875 C 6.988281 8.992188 7.601562 9.820312 8.390625 10.609375 C 9.179688 11.398438 10.035156 11.988281 10.953125 12.242188 Z M 12.769531 10.425781 "/>
<path style=" stroke:none;fill-rule:nonzero;fill:rgb(80.784314%,22.352941%,16.078431%);fill-opacity:1;" d="M 11.621094 14.5625 C 11.710938 13.761719 11.5625 12.910156 11.183594 12.011719 L 10.953125 12.242188 C 10.035156 11.988281 9.179688 11.398438 8.390625 10.609375 C 7.601562 9.820312 6.988281 8.984375 6.757812 8.046875 L 6.992188 7.8125 L 6.980469 7.804688 C 6.082031 7.417969 5.226562 7.269531 4.417969 7.359375 C 2.917969 7.519531 2.027344 9.070312 2.640625 10.445312 C 3.105469 11.492188 3.96875 12.714844 5.117188 13.863281 C 6.265625 15.011719 7.484375 15.871094 8.53125 16.339844 C 9.910156 16.953125 11.460938 16.0625 11.621094 14.5625 "/>
</g>
</svg>
