<?xml version="1.0" encoding="UTF-8"?>
<svg xmlns="http://www.w3.org/2000/svg" xmlns:xlink="http://www.w3.org/1999/xlink" width="19px" height="19px" viewBox="0 0 19 19" version="1.1">
<g id="surface1">
<path style=" stroke:none;fill-rule:nonzero;fill:rgb(0%,54.901961%,78.823529%);fill-opacity:1;" d="M 16.167969 6.667969 C 16.167969 2.988281 13.1875 0 9.5 0 C 5.8125 0 2.832031 2.988281 2.832031 6.667969 C 2.832031 8.535156 3.640625 10.652344 4.828125 12.300781 L 9.5 19 L 14.175781 12.300781 C 15.582031 10.28125 16.167969 8.535156 16.167969 6.667969 Z M 16.167969 6.667969 "/>
<path style=" stroke:none;fill-rule:nonzero;fill:rgb(0%,54.901961%,78.823529%);fill-opacity:1;" d="M 9.5 0 C 5.8125 0 2.832031 2.988281 2.832031 6.667969 "/>
<path style=" stroke:none;fill-rule:nonzero;fill:rgb(0%,54.901961%,78.823529%);fill-opacity:1;" d="M 9.5 19 L 14.175781 12.300781 C 15.582031 10.28125 16.167969 8.535156 16.167969 6.667969 C 16.167969 2.988281 13.1875 0 9.5 0 "/>
<path style=" stroke:none;fill-rule:nonzero;fill:rgb(0%,54.901961%,78.823529%);fill-opacity:1;" d="M 16.167969 6.667969 C 16.167969 2.988281 13.1875 0 9.5 0 "/>
<path style=" stroke:none;fill-rule:nonzero;fill:rgb(100%,100%,100%);fill-opacity:1;" d="M 12.5 6.292969 C 12.5 7.945312 11.15625 9.292969 9.5 9.292969 C 7.84375 9.292969 6.5 7.945312 6.5 6.292969 C 6.5 4.636719 7.84375 3.296875 9.5 3.296875 C 11.15625 3.296875 12.5 4.636719 12.5 6.292969 Z M 12.5 6.292969 "/>
<path style=" stroke:none;fill-rule:nonzero;fill:rgb(100%,100%,100%);fill-opacity:1;" d="M 6.5 6.292969 C 6.5 4.636719 7.84375 3.296875 9.5 3.296875 "/>
<path style=" stroke:none;fill-rule:nonzero;fill:rgb(100%,100%,100%);fill-opacity:1;" d="M 9.5 3.296875 C 11.152344 3.296875 12.5 4.636719 12.5 6.292969 C 12.5 7.945312 11.15625 9.289062 9.5 9.289062 "/>
<path style=" stroke:none;fill-rule:nonzero;fill:rgb(100%,100%,100%);fill-opacity:1;" d="M 12.5 6.292969 C 12.5 7.945312 11.152344 9.289062 9.5 9.289062 "/>
</g>
</svg>
