<?xml version="1.0" encoding="UTF-8"?>
<svg xmlns="http://www.w3.org/2000/svg" xmlns:xlink="http://www.w3.org/1999/xlink" width="35px" height="35px" viewBox="0 0 35 35" version="1.1">
<g id="surface1">
<path style=" stroke:none;fill-rule:nonzero;fill:rgb(0%,54.901961%,78.823529%);fill-opacity:1;" d="M 29.78125 12.28125 C 29.78125 5.503906 24.292969 0 17.5 0 C 10.707031 0 5.21875 5.503906 5.21875 12.28125 C 5.21875 15.722656 6.707031 19.621094 8.894531 22.660156 L 17.5 35 L 26.113281 22.660156 C 28.703125 18.9375 29.78125 15.722656 29.78125 12.28125 Z M 29.78125 12.28125 "/>
<path style=" stroke:none;fill-rule:nonzero;fill:rgb(0%,54.901961%,78.823529%);fill-opacity:1;" d="M 17.5 0 C 10.707031 0 5.21875 5.503906 5.21875 12.28125 "/>
<path style=" stroke:none;fill-rule:nonzero;fill:rgb(0%,54.901961%,78.823529%);fill-opacity:1;" d="M 17.5 35 L 26.113281 22.660156 C 28.703125 18.9375 29.78125 15.722656 29.78125 12.28125 C 29.78125 5.503906 24.292969 0 17.5 0 "/>
<path style=" stroke:none;fill-rule:nonzero;fill:rgb(0%,54.901961%,78.823529%);fill-opacity:1;" d="M 29.78125 12.28125 C 29.78125 5.503906 24.292969 0 17.5 0 "/>
<path style=" stroke:none;fill-rule:nonzero;fill:rgb(100%,100%,100%);fill-opacity:1;" d="M 23.027344 11.59375 C 23.027344 14.636719 20.550781 17.117188 17.5 17.117188 C 14.449219 17.117188 11.972656 14.636719 11.972656 11.59375 C 11.972656 8.542969 14.449219 6.074219 17.5 6.074219 C 20.550781 6.074219 23.027344 8.542969 23.027344 11.59375 Z M 23.027344 11.59375 "/>
<path style=" stroke:none;fill-rule:nonzero;fill:rgb(100%,100%,100%);fill-opacity:1;" d="M 11.972656 11.59375 C 11.972656 8.542969 14.449219 6.074219 17.5 6.074219 "/>
<path style=" stroke:none;fill-rule:nonzero;fill:rgb(100%,100%,100%);fill-opacity:1;" d="M 17.5 6.074219 C 20.542969 6.074219 23.027344 8.542969 23.027344 11.59375 C 23.027344 14.636719 20.550781 17.113281 17.5 17.113281 "/>
<path style=" stroke:none;fill-rule:nonzero;fill:rgb(100%,100%,100%);fill-opacity:1;" d="M 23.027344 11.59375 C 23.027344 14.636719 20.542969 17.113281 17.5 17.113281 "/>
</g>
</svg>
