<?xml version="1.0" encoding="UTF-8"?>
<svg xmlns="http://www.w3.org/2000/svg" xmlns:xlink="http://www.w3.org/1999/xlink" width="35px" height="35px" viewBox="0 0 35 35" version="1.1">
<g id="surface1">
<path style=" stroke:none;fill-rule:nonzero;fill:rgb(63.921569%,10.980392%,3.529412%);fill-opacity:1;" d="M 34.769531 13.101562 C 33.828125 14.054688 30.171875 11.9375 26.617188 8.382812 C 23.0625 4.828125 20.945312 1.171875 21.898438 0.230469 C 22.839844 -0.71875 26.496094 1.394531 30.050781 4.949219 C 33.605469 8.503906 35.71875 12.160156 34.769531 13.101562 "/>
<path style=" stroke:none;fill-rule:nonzero;fill:rgb(85.098039%,85.882353%,90.980392%);fill-opacity:1;" d="M 0 35 L 7.726562 23.832031 L 11.167969 27.273438 Z M 0 35 "/>
<path style=" stroke:none;fill-rule:nonzero;fill:rgb(80.784314%,22.352941%,16.078431%);fill-opacity:1;" d="M 26.617188 8.382812 C 23.0625 4.828125 20.945312 1.171875 21.898438 0.230469 C 18.457031 3.664062 19.199219 8.683594 22.753906 12.246094 C 26.316406 15.800781 31.113281 16.757812 34.5625 13.320312 L 34.511719 13.261719 C 33.257812 13.714844 29.90625 11.664062 26.617188 8.382812 "/>
<path style=" stroke:none;fill-rule:nonzero;fill:rgb(63.921569%,10.980392%,3.529412%);fill-opacity:1;" d="M 23.523438 19.207031 L 27.550781 15.167969 C 25.867188 14.707031 24.207031 13.699219 22.753906 12.246094 C 21.300781 10.792969 20.328125 9.09375 19.902344 7.359375 L 15.800781 11.476562 L 12.449219 14.824219 C 12.875 16.566406 14.003906 18.089844 15.457031 19.542969 C 16.910156 20.996094 18.484375 22.082031 20.175781 22.550781 Z M 23.523438 19.207031 "/>
<path style=" stroke:none;fill-rule:nonzero;fill:rgb(63.921569%,10.980392%,3.529412%);fill-opacity:1;" d="M 23.523438 19.207031 L 27.550781 15.167969 C 25.867188 14.707031 24.207031 13.699219 22.753906 12.246094 C 21.300781 10.792969 20.328125 9.09375 19.902344 7.359375 L 15.800781 11.476562 L 12.449219 14.824219 C 12.875 16.566406 14.003906 18.089844 15.457031 19.542969 C 16.910156 20.996094 18.484375 22.082031 20.175781 22.550781 Z M 23.523438 19.207031 "/>
<path style=" stroke:none;fill-rule:nonzero;fill:rgb(80.784314%,22.352941%,16.078431%);fill-opacity:1;" d="M 21.40625 26.824219 C 21.574219 25.351562 21.300781 23.78125 20.601562 22.125 L 20.175781 22.550781 C 18.484375 22.082031 16.910156 20.996094 15.457031 19.542969 C 14.003906 18.089844 12.875 16.550781 12.449219 14.824219 L 12.878906 14.390625 L 12.859375 14.378906 C 11.203125 13.664062 9.628906 13.390625 8.136719 13.558594 C 5.375 13.851562 3.734375 16.707031 4.863281 19.242188 C 5.71875 21.167969 7.3125 23.421875 9.425781 25.539062 C 11.542969 27.652344 13.785156 29.234375 15.714844 30.101562 C 18.253906 31.230469 21.113281 29.589844 21.40625 26.824219 "/>
</g>
</svg>
